<svg width="137" height="22" viewBox="0 0 137 22" fill="none" xmlns="http://www.w3.org/2000/svg">
<line opacity="0.2" y1="11.1599" x2="137" y2="11.1599" stroke="#10A5F9" stroke-miterlimit="16" stroke-dasharray="2 2"/>
<g clip-path="url(#clip0_767_1943)">
<path d="M71.5442 12.3666L67.3333 19.4332L65.6667 19.4332L67.7717 12.3666L63.305 12.3666L61.9167 15.0166L60.6667 15.0166L61.5 11.0416L60.6667 7.06657L61.9167 7.06657L63.3058 9.71657L67.7725 9.71657L65.6667 2.6499L67.3333 2.6499L71.5442 9.71657L76.0833 9.71657C76.4149 9.71657 76.7328 9.85617 76.9672 10.1047C77.2016 10.3531 77.3333 10.6902 77.3333 11.0416C77.3333 11.393 77.2016 11.73 76.9672 11.9785C76.7328 12.227 76.4149 12.3666 76.0833 12.3666L71.5442 12.3666Z" fill="#10A5F9"/>
</g>
<defs>
<clipPath id="clip0_767_1943">
<rect width="21.2" height="20" fill="white" transform="translate(79) rotate(90)"/>
</clipPath>
</defs>
</svg>
