<svg width="25" height="24" viewBox="0 0 25 24" fill="none" xmlns="http://www.w3.org/2000/svg">
<path d="M22.23 18L14.23 3.99998C14.0556 3.69218 13.8026 3.43617 13.4969 3.25805C13.1912 3.07993 12.8438 2.98608 12.49 2.98608C12.1362 2.98608 11.7887 3.07993 11.4831 3.25805C11.1774 3.43617 10.9244 3.69218 10.75 3.99998L2.74999 18C2.57367 18.3053 2.48122 18.6519 2.482 19.0045C2.48278 19.3571 2.57677 19.7032 2.75444 20.0078C2.93211 20.3124 3.18714 20.5646 3.49369 20.7388C3.80023 20.9131 4.1474 21.0032 4.49999 21H20.5C20.8509 20.9996 21.1955 20.9069 21.4993 20.7313C21.803 20.5556 22.0552 20.3031 22.2305 19.9991C22.4058 19.6951 22.498 19.3504 22.4979 18.9995C22.4978 18.6486 22.4054 18.3039 22.23 18Z" stroke="#FF0000" stroke-width="2" stroke-linecap="round" stroke-linejoin="round"/>
<path d="M12.5 9V13" stroke="#FF0000" stroke-width="2" stroke-linecap="round" stroke-linejoin="round"/>
<path d="M12.5 17H12.51" stroke="#FF0000" stroke-width="2" stroke-linecap="round" stroke-linejoin="round"/>
</svg>
