<svg width="17" height="17" viewBox="0 0 17 17" fill="none" xmlns="http://www.w3.org/2000/svg">
<g clip-path="url(#clip0_183_615)">
<path d="M15.5832 9.91675C15.5832 11.4196 14.9861 12.861 13.9234 13.9237C12.8607 14.9864 11.4194 15.5834 9.9165 15.5834" stroke="#3D6B7C" stroke-width="2" stroke-linecap="round" stroke-linejoin="round"/>
<path d="M12.7498 7.79175V7.08341C12.7498 6.70769 12.6006 6.34736 12.3349 6.08168C12.0692 5.816 11.7089 5.66675 11.3332 5.66675C10.9574 5.66675 10.5971 5.816 10.3314 6.08168C10.0658 6.34736 9.9165 6.70769 9.9165 7.08341" stroke="#3D6B7C" stroke-width="2" stroke-linecap="round" stroke-linejoin="round"/>
<path d="M9.91683 7.08325V6.37492C9.91683 5.9992 9.76757 5.63886 9.5019 5.37318C9.23622 5.10751 8.87589 4.95825 8.50016 4.95825C8.12444 4.95825 7.7641 5.10751 7.49843 5.37318C7.23275 5.63886 7.0835 5.9992 7.0835 6.37492V7.08325" stroke="#3D6B7C" stroke-width="2" stroke-linecap="round" stroke-linejoin="round"/>
<path d="M7.08333 6.72925V2.83341C7.08333 2.45769 6.93408 2.09736 6.6684 1.83168C6.40272 1.566 6.04239 1.41675 5.66667 1.41675C5.29094 1.41675 4.93061 1.566 4.66493 1.83168C4.39926 2.09736 4.25 2.45769 4.25 2.83341V9.91675" stroke="#3D6B7C" stroke-width="2" stroke-linecap="round" stroke-linejoin="round"/>
<path d="M12.7499 7.79167C12.7499 7.41594 12.8992 7.05561 13.1648 6.78993C13.4305 6.52426 13.7909 6.375 14.1666 6.375C14.5423 6.375 14.9026 6.52426 15.1683 6.78993C15.434 7.05561 15.5832 7.41594 15.5832 7.79167V9.91667C15.5832 11.4196 14.9862 12.8609 13.9235 13.9236C12.8608 14.9863 11.4195 15.5833 9.91658 15.5833H8.49991C6.51658 15.5833 5.31241 14.9742 4.25699 13.9258L1.70699 11.3758C1.46328 11.1059 1.3327 10.7526 1.34229 10.3891C1.35188 10.0255 1.5009 9.67962 1.7585 9.42293C2.01611 9.16624 2.36256 9.01844 2.72612 9.01014C3.08969 9.00184 3.44253 9.13367 3.71158 9.37833L4.95824 10.625" stroke="#3D6B7C" stroke-width="2" stroke-linecap="round" stroke-linejoin="round"/>
</g>
<defs>
<clipPath id="clip0_183_615">
<rect width="17" height="17" fill="white"/>
</clipPath>
</defs>
</svg>
