<svg width="17" height="17" viewBox="0 0 17 17" fill="none" xmlns="http://www.w3.org/2000/svg">
<g clip-path="url(#clip0_313_4227)">
<path d="M15.5833 9.91675C15.5833 11.4196 14.9863 12.861 13.9236 13.9237C12.8609 14.9864 11.4195 15.5834 9.91663 15.5834" stroke="#3D6B7C" stroke-width="2" stroke-linecap="round" stroke-linejoin="round"/>
<path d="M12.75 7.79175V7.08341C12.75 6.70769 12.6007 6.34736 12.335 6.08168C12.0694 5.816 11.709 5.66675 11.3333 5.66675C10.9576 5.66675 10.5972 5.816 10.3316 6.08168C10.0659 6.34736 9.91663 6.70769 9.91663 7.08341" stroke="#3D6B7C" stroke-width="2" stroke-linecap="round" stroke-linejoin="round"/>
<path d="M9.91671 7.08325V6.37492C9.91671 5.9992 9.76745 5.63886 9.50178 5.37318C9.2361 5.10751 8.87576 4.95825 8.50004 4.95825C8.12432 4.95825 7.76398 5.10751 7.49831 5.37318C7.23263 5.63886 7.08337 5.9992 7.08337 6.37492V7.08325" stroke="#3D6B7C" stroke-width="2" stroke-linecap="round" stroke-linejoin="round"/>
<path d="M7.08333 6.72925V2.83341C7.08333 2.45769 6.93408 2.09736 6.6684 1.83168C6.40272 1.566 6.04239 1.41675 5.66667 1.41675C5.29094 1.41675 4.93061 1.566 4.66493 1.83168C4.39926 2.09736 4.25 2.45769 4.25 2.83341V9.91675" stroke="#3D6B7C" stroke-width="2" stroke-linecap="round" stroke-linejoin="round"/>
<path d="M12.75 7.79167C12.75 7.41594 12.8993 7.05561 13.165 6.78993C13.4306 6.52426 13.791 6.375 14.1667 6.375C14.5424 6.375 14.9028 6.52426 15.1684 6.78993C15.4341 7.05561 15.5834 7.41594 15.5834 7.79167V9.91667C15.5834 11.4196 14.9863 12.8609 13.9236 13.9236C12.8609 14.9863 11.4196 15.5833 9.9167 15.5833H8.50003C6.5167 15.5833 5.31253 14.9742 4.25712 13.9258L1.70712 11.3758C1.4634 11.1059 1.33282 10.7526 1.34241 10.3891C1.352 10.0255 1.50102 9.67962 1.75863 9.42293C2.01623 9.16624 2.36268 9.01844 2.72625 9.01014C3.08981 9.00184 3.44265 9.13367 3.7117 9.37833L4.95837 10.625" stroke="#3D6B7C" stroke-width="2" stroke-linecap="round" stroke-linejoin="round"/>
</g>
<defs>
<clipPath id="clip0_313_4227">
<rect width="17" height="17" fill="white"/>
</clipPath>
</defs>
</svg>
