<svg width="40" height="40" viewBox="0 0 40 40" fill="none" xmlns="http://www.w3.org/2000/svg">
<path d="M5 11.6668V15.0002C6.32608 15.0002 7.59785 15.5269 8.53553 16.4646C9.47322 17.4023 10 18.6741 10 20.0002C10 21.3262 9.47322 22.598 8.53553 23.5357C7.59785 24.4734 6.32608 25.0002 5 25.0002V28.3335C5 30.1668 6.5 31.6668 8.33333 31.6668H31.6667C32.5507 31.6668 33.3986 31.3156 34.0237 30.6905C34.6488 30.0654 35 29.2176 35 28.3335V25.0002C33.6739 25.0002 32.4021 24.4734 31.4645 23.5357C30.5268 22.598 30 21.3262 30 20.0002C30 18.6741 30.5268 17.4023 31.4645 16.4646C32.4021 15.5269 33.6739 15.0002 35 15.0002V11.6668C35 10.7828 34.6488 9.93493 34.0237 9.30981C33.3986 8.68469 32.5507 8.3335 31.6667 8.3335H8.33333C7.44928 8.3335 6.60143 8.68469 5.97631 9.30981C5.35119 9.93493 5 10.7828 5 11.6668Z" stroke="#1E40AF" stroke-width="2" stroke-linecap="round" stroke-linejoin="round"/>
<path d="M21.6667 8.3335V11.6668" stroke="#1E40AF" stroke-width="2" stroke-linecap="round" stroke-linejoin="round"/>
<path d="M21.6667 28.3335V31.6668" stroke="#1E40AF" stroke-width="2" stroke-linecap="round" stroke-linejoin="round"/>
<path d="M21.6667 18.3335V21.6668" stroke="#1E40AF" stroke-width="2" stroke-linecap="round" stroke-linejoin="round"/>
</svg>
