<?xml version="1.0" encoding="UTF-8"?>
<svg id="_레이어_2" data-name="레이어 2" xmlns="http://www.w3.org/2000/svg" viewBox="0 0 24.34 35.84">
  <defs>
    <style>
      .cls-1 {
        fill: #fdfdfd;
      }

      .cls-1, .cls-2, .cls-3, .cls-4, .cls-5, .cls-6 {
        fill-rule: evenodd;
      }

      .cls-2 {
        fill: #020002;
        opacity: .95;
      }

      .cls-2, .cls-5 {
        isolation: isolate;
      }

      .cls-3 {
        fill: #040406;
      }

      .cls-4 {
        fill: #fd5228;
      }

      .cls-5 {
        fill: #ccdbf7;
        opacity: 1;
      }

      .cls-6 {
        fill: #050304;
      }
    </style>
  </defs>
  <g id="_레이어_1-2" data-name="레이어 1">
    <path class="cls-2" d="M10.84,0h2.66c4.78,.74,8.13,3.33,10.05,7.77,1.24,3.47,1.03,6.86-.63,10.15-3.5,5.97-6.99,11.94-10.47,17.92h-.56c-3.47-5.98-6.96-11.96-10.47-17.92C-.56,13.86-.47,9.84,1.7,5.88,3.84,2.52,6.89,.56,10.84,0Z"/>
    <path class="cls-4" d="M11.05,.84c5.18-.21,8.97,1.96,11.38,6.51,1.5,3.43,1.41,6.81-.28,10.15-3.33,5.67-6.65,11.34-9.98,17.01-3.32-5.67-6.65-11.34-9.97-17.01C.04,12.99,.48,8.77,3.52,4.83,5.54,2.57,8.05,1.24,11.05,.84Z"/>
    <path class="cls-6" d="M11.33,3.36c4.57-.09,7.69,1.98,9.38,6.19,1.06,3.97,.03,7.28-3.08,9.94-2.73,1.92-5.67,2.32-8.82,1.19-3.95-1.85-5.8-4.97-5.57-9.35,.59-3.8,2.7-6.33,6.34-7.59,.59-.16,1.17-.29,1.75-.39Z"/>
    <path class="cls-1" d="M11.26,4.2c3.51-.2,6.18,1.18,8.02,4.13,1.06,1.95,1.31,4,.77,6.16-.78,2.53-2.38,4.34-4.8,5.43-3.68,1.27-6.82,.46-9.41-2.42-1.72-2.27-2.21-4.79-1.47-7.56,1.19-3.25,3.49-5.17,6.9-5.74Z"/>
    <path class="cls-3" d="M17.07,8.82c.63-.02,1.26,.01,1.89,.1,.55,.36,.63,.82,.24,1.36-.3,.34-.64,.64-1.01,.88-2.2,1.22-4.44,2.36-6.72,3.43-1.24,.47-2.5,.86-3.78,1.19-.46,.1-.93,.12-1.4,.07-.1-.03-.18-.09-.24-.18-.17-.38-.24-.78-.21-1.19,.13-.12,.29-.21,.45-.28-.51-.59-.97-1.21-1.4-1.85,.03-.09,.06-.17,.1-.25,.18-.14,.36-.3,.53-.45,.11-.08,.22-.11,.35-.07,.93,.47,1.86,.93,2.8,1.36,.37-.1,.72-.26,1.05-.45-.47-.28-.93-.56-1.4-.84-.21-.28-.16-.51,.14-.7,.33-.16,.65-.33,.98-.49,.99,.16,1.99,.36,2.97,.6,1.55-.78,3.1-1.53,4.66-2.24Z"/>
    <path class="cls-5" d="M17.49,9.59c.38-.01,.75,.02,1.12,.11-.37,.43-.82,.78-1.33,1.05-1.39,.71-2.76,1.43-4.13,2.17-2.02,.99-4.13,1.72-6.34,2.2-.04-.02-.07-.05-.11-.07,.17-.12,.36-.2,.56-.25,.27-.27,.26-.54-.04-.81-.39-.41-.75-.84-1.08-1.3,.73,.29,1.44,.63,2.13,1.02,1,0,1.86-.35,2.59-1.05,.05-.14,.05-.28,0-.42-.44-.32-.89-.61-1.36-.88,.04-.05,.08-.08,.14-.1,.99,.27,2,.46,3.01,.59,1.29-.64,2.58-1.29,3.85-1.96,.33-.13,.65-.23,.98-.32Z"/>
  </g>
</svg>