<?xml version="1.0" encoding="UTF-8"?>
<!DOCTYPE svg PUBLIC "-//W3C//DTD SVG 1.1//EN" "http://www.w3.org/Graphics/SVG/1.1/DTD/svg11.dtd">
<svg xmlns="http://www.w3.org/2000/svg" version="1.1" width="512px" height="512px" style="shape-rendering:geometricPrecision; text-rendering:geometricPrecision; image-rendering:optimizeQuality; fill-rule:evenodd; clip-rule:evenodd" xmlns:xlink="http://www.w3.org/1999/xlink">
<g><path style="opacity:0.947" fill="#020002" d="M 236.5,-0.5 C 249.167,-0.5 261.833,-0.5 274.5,-0.5C 342.841,10.0102 390.675,47.0102 418,110.5C 435.697,160.128 432.697,208.462 409,255.5C 358.94,340.721 309.106,426.054 259.5,511.5C 256.833,511.5 254.167,511.5 251.5,511.5C 201.931,426.03 152.097,340.697 102,255.5C 73.5859,197.449 74.9192,140.116 106,83.5C 136.511,35.4846 180.011,7.48464 236.5,-0.5 Z"/></g>
<g><path style="opacity:1" fill="#fd5228" d="M 239.5,11.5 C 313.478,8.55456 367.644,39.5546 402,104.5C 423.494,153.44 422.161,201.773 398,249.5C 350.485,330.536 302.985,411.536 255.5,492.5C 208.015,411.536 160.515,330.536 113,249.5C 82.2027,185.134 88.536,124.8 132,68.5C 160.792,36.1879 196.625,17.1879 239.5,11.5 Z"/></g>
<g><path style="opacity:1" fill="#050304" d="M 243.5,47.5 C 308.715,46.2523 353.381,75.7523 377.5,136C 392.595,192.707 377.928,240.04 333.5,278C 294.502,305.428 252.502,311.095 207.5,295C 151.132,268.565 124.632,224.065 128,161.5C 136.409,107.182 166.575,71.0149 218.5,53C 226.874,50.6946 235.207,48.8613 243.5,47.5 Z"/></g>
<g><path style="opacity:1" fill="#fdfdfd" d="M 242.5,59.5 C 292.606,56.6325 330.772,76.2992 357,118.5C 372.086,146.352 375.753,175.685 368,206.5C 356.815,242.682 333.982,268.515 299.5,284C 246.894,302.121 202.061,290.621 165,249.5C 140.442,217.04 133.442,181.04 144,141.5C 160.978,95.015 193.811,67.6817 242.5,59.5 Z"/></g>
<g><path style="opacity:1" fill="#040406" d="M 325.5,125.5 C 334.559,125.154 343.559,125.654 352.5,127C 360.338,132.195 361.505,138.695 356,146.5C 351.756,151.415 346.923,155.581 341.5,159C 310.062,176.386 278.062,192.719 245.5,208C 227.828,214.668 209.828,220.335 191.5,225C 184.89,226.441 178.224,226.774 171.5,226C 170.069,225.535 168.903,224.701 168,223.5C 165.556,218.063 164.556,212.396 165,206.5C 166.925,204.787 169.092,203.453 171.5,202.5C 164.243,194.081 157.576,185.248 151.5,176C 151.862,174.775 152.362,173.609 153,172.5C 155.593,170.451 158.093,168.285 160.5,166C 162.044,164.813 163.711,164.48 165.5,165C 178.716,171.775 192.049,178.275 205.5,184.5C 210.817,183.007 215.817,180.841 220.5,178C 213.833,174 207.167,170 200.5,166C 197.499,161.997 198.165,158.664 202.5,156C 207.167,153.667 211.833,151.333 216.5,149C 230.706,151.308 244.873,154.141 259,157.5C 281.116,146.356 303.283,135.689 325.5,125.5 Z"/></g>
<g><path style="opacity:0.999" fill="#ccdbf7" d="M 331.5,136.5 C 336.899,136.309 342.233,136.809 347.5,138C 342.154,144.182 335.821,149.182 328.5,153C 308.675,163.078 289.009,173.412 269.5,184C 240.603,198.077 210.436,208.577 179,215.5C 178.5,215.167 178,214.833 177.5,214.5C 179.925,212.855 182.592,211.689 185.5,211C 189.341,207.118 189.175,203.285 185,199.5C 179.457,193.626 174.29,187.459 169.5,181C 179.887,185.108 190.054,189.941 200,195.5C 214.265,195.542 226.599,190.542 237,180.5C 237.667,178.5 237.667,176.5 237,174.5C 230.755,169.959 224.255,165.792 217.5,162C 218.025,161.308 218.692,160.808 219.5,160.5C 233.692,164.305 248.025,167.138 262.5,169C 280.989,159.922 299.323,150.589 317.5,141C 322.184,139.17 326.851,137.67 331.5,136.5 Z"/></g>
</svg>
